# xmcd CD database file
# Generated: Thu Oct 4 09:41:03 2001 by KSCD
# 
# Track frame offsets:
#       150
#       21480
#       42050
#       63816
#       81777
#       98641
#       119297
#       145373
#       165306
#
# Disc length: 2521 seconds
#
# Revision: 1
# Processed by: cddbd v1.4PL0 Copyright (c) Steve Scherf et al.
# Submitted via: Kscd 1.3.2
#
DISCID=6a09d709
DTITLE=D. Johnson - Mississippi Delta Blues
DYEAR=1900
DGENRE=
TTITLE0=Death Letter
TTITLE1=Radio Blues
TTITLE2=Roaming Mind Blues
TTITLE3=If I Had Possession Over Judgement Day
TTITLE4=Poison Your Whiskey
TTITLE5=Front Porch Blues
TTITLE6=God Fearing Woman
TTITLE7=I Can't Be Satisified
TTITLE8=Find Me Religion
EXTD=
EXTT0=
EXTT1=
EXTT2=
EXTT3=
EXTT4=
EXTT5=
EXTT6=
EXTT7=
EXTT8=
PLAYORDER=
